<svg width="64" height="64" viewBox="0 0 64 64" fill="none" xmlns="http://www.w3.org/2000/svg">
<circle cx="32" cy="32" r="32" fill="#EB5757" fill-opacity="0.05"/>
<path d="M21 24.7617H23.3809H42.4284" stroke="#EB5757" stroke-width="2" stroke-linecap="round" stroke-linejoin="round"/>
<path d="M26.9523 24.7619V22.3809C26.9523 21.7495 27.2031 21.1439 27.6496 20.6974C28.0961 20.2508 28.7017 20 29.3332 20H34.095C34.7265 20 35.3321 20.2508 35.7786 20.6974C36.2251 21.1439 36.476 21.7495 36.476 22.3809V24.7619M40.0474 24.7619V41.4284C40.0474 42.0598 39.7965 42.6654 39.35 43.1119C38.9035 43.5584 38.2979 43.8093 37.6664 43.8093H25.7618C25.1303 43.8093 24.5247 43.5584 24.0782 43.1119C23.6317 42.6654 23.3809 42.0598 23.3809 41.4284V24.7619H40.0474Z" stroke="#EB5757" stroke-width="2" stroke-linecap="round" stroke-linejoin="round"/>
<path d="M29.3333 30.7139V37.8567" stroke="#EB5757" stroke-width="2" stroke-linecap="round" stroke-linejoin="round"/>
<path d="M34.0951 30.7139V37.8567" stroke="#EB5757" stroke-width="2" stroke-linecap="round" stroke-linejoin="round"/>
</svg>
