<svg width="65" height="65" viewBox="0 0 65 65" fill="none" xmlns="http://www.w3.org/2000/svg">
<circle cx="32.6475" cy="32.8967" r="32" fill="#0B7BFF" fill-opacity="0.05"/>
<path d="M19.2129 23.126V30.454H26.5409" stroke="#0B7BFF" stroke-width="2" stroke-linecap="round" stroke-linejoin="round"/>
<path d="M46.0819 42.6674V35.3394H38.7539" stroke="#0B7BFF" stroke-width="2" stroke-linecap="round" stroke-linejoin="round"/>
<path d="M43.0167 29.2327C42.3972 27.4823 41.3445 25.9173 39.9567 24.6837C38.5688 23.4502 36.8911 22.5884 35.0801 22.1786C33.2691 21.7688 31.3838 21.8245 29.6001 22.3404C27.8164 22.8564 26.1925 23.8157 24.8799 25.129L19.2129 30.454M46.0822 35.3394L40.4152 40.6644C39.1026 41.9777 37.4787 42.937 35.695 43.453C33.9113 43.9689 32.026 44.0246 30.215 43.6148C28.404 43.205 26.7263 42.3432 25.3384 41.1096C23.9506 39.8761 22.8979 38.3111 22.2784 36.5607" stroke="#0B7BFF" stroke-width="2" stroke-linecap="round" stroke-linejoin="round"/>
</svg>
