<svg width="64" height="64" viewBox="0 0 64 64" fill="none" xmlns="http://www.w3.org/2000/svg">
<circle cx="32" cy="32" r="32" fill="#F2994A" fill-opacity="0.05"/>
<path d="M29.72 19.1465L18.4267 37.9998C18.1939 38.403 18.0707 38.8602 18.0693 39.3258C18.068 39.7914 18.1887 40.2493 18.4193 40.6538C18.6498 41.0583 18.9823 41.3954 19.3836 41.6316C19.7849 41.8677 20.2411 41.9947 20.7067 41.9998H43.2934C43.759 41.9947 44.2151 41.8677 44.6164 41.6316C45.0177 41.3954 45.3502 41.0583 45.5808 40.6538C45.8114 40.2493 45.932 39.7914 45.9307 39.3258C45.9294 38.8602 45.8062 38.403 45.5734 37.9998L34.28 19.1465C34.0423 18.7546 33.7077 18.4306 33.3083 18.2058C32.9089 17.9809 32.4583 17.8628 32 17.8628C31.5417 17.8628 31.0911 17.9809 30.6918 18.2058C30.2924 18.4306 29.9577 18.7546 29.72 19.1465V19.1465Z" stroke="#F2994A" stroke-width="2" stroke-linecap="round" stroke-linejoin="round"/>
<path d="M32 26V31.3333" stroke="#F2994A" stroke-width="2" stroke-linecap="round" stroke-linejoin="round"/>
<ellipse cx="32" cy="36.6668" rx="1.33333" ry="1.33333" fill="#F2994A"/>
</svg>
